<?xml version="1.0" encoding="UTF-8"?>
<svg viewBox="0 0 1024 1024" version="1.1" xmlns="http://www.w3.org/2000/svg" xmlns:xlink="http://www.w3.org/1999/xlink">
    <g transform="translate(64.000000, 192.000000)" fill-rule="nonzero">
        <path d="M724,0 L724,80 L312.638057,80 C257.572344,80 215.525396,89.4629446 180.96951,107.943634 C149.281358,124.890643 124.890643,149.281358 107.943634,180.96951 C89.6477515,215.179837 80.1901607,256.732154 80,310.989986 L80,327.361943 C80,382.427656 89.4629446,424.474604 107.943634,459.03049 C124.890643,490.718642 149.281358,515.109357 180.96951,532.056366 C215.179837,550.352248 256.732154,559.809839 310.989986,560 L560,560 L560,502 L756,600 L560,698 L560,640 L312.638057,640 C243.392479,640 188.871231,627.004414 143.241602,602.601421 C97.6119719,578.198429 61.8015715,542.388028 37.3985785,496.758398 C12.9955856,451.128769 0,396.607521 0,327.361943 L0,312.638057 C0,243.392479 12.9955856,188.871231 37.3985785,143.241602 C61.8015715,97.6119719 97.6119719,61.8015715 143.241602,37.3985785 C188.871231,12.9955856 243.392479,0 312.638057,0 L724,0 Z" />
    </g>
</svg>
