<?xml version="1.0" encoding="UTF-8"?>
<svg viewBox="0 0 1024 1024" version="1.1" xmlns="http://www.w3.org/2000/svg" xmlns:xlink="http://www.w3.org/1999/xlink">
    <g transform="translate(64.000000, 0.000000)" fill-rule="nonzero">
        <path d="M724,192 L724,272 L312.638057,272 C257.572344,272 215.525396,281.462945 180.96951,299.943634 C149.281358,316.890643 124.890643,341.281358 107.943634,372.96951 C89.6477515,407.179837 80.1901607,448.732154 80,502.989986 L80,519.361943 C80,574.427656 89.4629446,616.474604 107.943634,651.03049 C124.890643,682.718642 149.281358,707.109357 180.96951,724.056366 C215.179837,742.352248 256.732154,751.809839 310.989986,752 L560,752 L560,694 L756,792 L560,890 L560,832 L312.638057,832 C243.392479,832 188.871231,819.004414 143.241602,794.601421 C97.6119719,770.198429 61.8015715,734.388028 37.3985785,688.758398 C12.9955856,643.128769 0,588.607521 0,519.361943 L0,504.638057 C0,435.392479 12.9955856,380.871231 37.3985785,335.241602 C61.8015715,289.611972 97.6119719,253.801571 143.241602,229.398579 C188.871231,204.995586 243.392479,192 312.638057,192 L724,192 Z" />
        <path d="M890.272,760 L890.272,268.768 L846.24,268.768 C829.728,287.344 810.464,303.856 787.072,318.992 C763.68,332.752 740.288,342.384 718.272,348.576 L718.272,404.992 C764.368,391.232 802.896,369.216 833.856,337.568 L833.856,760 L890.272,760 Z" />
    </g>
</svg>
