<?xml version="1.0" encoding="UTF-8"?>
<svg viewBox="0 0 1024 1024" version="1.1" xmlns="http://www.w3.org/2000/svg" xmlns:xlink="http://www.w3.org/1999/xlink">
    <path d="M764,694 L960,792 L764,890 L764,694 Z M764,134 L960,232 L764,330 L764,134 Z M192,192 C311.279955,192 415.317141,257.262054 470.352375,354.026981 L472,356.958 L473.647625,354.026981 C528.682859,257.262054 632.720045,192 752,192 L866,192 L866,272 L752,272 C619.45166,272 512,379.45166 512,512 C512,643.222857 617.313372,749.848457 748.031161,751.967847 L752,752 L866,752 L866,832 L752,832 C632.720045,832 528.682859,766.737946 473.647625,669.973019 L472,667.041 L470.352375,669.973019 C415.317141,766.737946 311.279955,832 192,832 L64,832 L64,752 L192,752 C324.54834,752 432,644.54834 432,512 C432,380.777143 326.686628,274.151543 195.968839,272.032153 L192,272 L64,272 L64,192 L192,192 Z" fill-rule="nonzero" />
</svg>
