<?xml version="1.0" encoding="UTF-8"?>
<svg width="128px" height="128px" viewBox="0 0 128 128" version="1.1" xmlns="http://www.w3.org/2000/svg" xmlns:xlink="http://www.w3.org/1999/xlink">
  <g stroke="none" stroke-width="1" fill="none" fill-rule="evenodd">
    <path fill="#141414" d="M63.8275383,12.4130456 L68.6295905,17.8211641 C72.9283315,22.115332 76.1198476,25.1549637 78.2041387,26.9400592 C88.6372938,35.8755568 97.8889311,41.3646215 97.4802368,53.0680976 C97.1600074,62.2382674 93.028636,70.1920906 85.0861227,76.9295671 C84.7285417,77.5449821 84.8325002,77.2521078 85.397998,76.0509443 L85.5312616,75.7690678 C86.0242747,74.7301706 86.7964907,73.1418145 87.8479096,71.0039995 C89.0672118,68.5248329 91.1929771,64.082707 91.4723935,56.0812687 C91.6377263,51.3467583 85.7491814,44.7173815 73.806759,36.1931383 L71.7960136,93.7601525 L71.7700807,93.7594487 C71.3880806,99.6124509 66.4301238,106.433513 58.6485572,110.926203 C48.314955,116.892311 36.9151114,116.493147 33.1862938,110.034646 C29.4574763,103.576144 34.8117122,93.5040081 45.1453145,87.5379001 C50.6892036,84.3371342 56.5399816,82.9684403 61.3484867,83.3845778 L63.8275383,12.4130456 Z" />
  </g>
</svg>
